<svg width="202" height="108" viewBox="0 0 202 108" fill="none" xmlns="http://www.w3.org/2000/svg">
<g filter="url(#filter0_d_205_248)">
<rect x="32" y="28" width="138" height="44" rx="22" fill="#2F2105" shape-rendering="crispEdges"/>
<path d="M69.6153 54.598C68.7006 54.598 67.8606 54.3833 67.0953 53.954C66.3299 53.5247 65.7233 52.932 65.2753 52.176C64.8273 51.4107 64.6033 50.5473 64.6033 49.586C64.6033 48.634 64.8273 47.78 65.2753 47.024C65.7233 46.2587 66.3299 45.6613 67.0953 45.232C67.8606 44.8027 68.7006 44.588 69.6153 44.588C70.5393 44.588 71.3793 44.8027 72.1353 45.232C72.9006 45.6613 73.5026 46.2587 73.9413 47.024C74.3893 47.78 74.6133 48.634 74.6133 49.586C74.6133 50.5473 74.3893 51.4107 73.9413 52.176C73.5026 52.932 72.9006 53.5247 72.1353 53.954C71.3699 54.3833 70.5299 54.598 69.6153 54.598ZM69.6153 52.848C70.2033 52.848 70.7213 52.7173 71.1693 52.456C71.6173 52.1853 71.9673 51.8027 72.2193 51.308C72.4713 50.8133 72.5973 50.2393 72.5973 49.586C72.5973 48.9327 72.4713 48.3633 72.2193 47.878C71.9673 47.3833 71.6173 47.0053 71.1693 46.744C70.7213 46.4827 70.2033 46.352 69.6153 46.352C69.0273 46.352 68.5046 46.4827 68.0473 46.744C67.5993 47.0053 67.2493 47.3833 66.9973 47.878C66.7453 48.3633 66.6193 48.9327 66.6193 49.586C66.6193 50.2393 66.7453 50.8133 66.9973 51.308C67.2493 51.8027 67.5993 52.1853 68.0473 52.456C68.5046 52.7173 69.0273 52.848 69.6153 52.848ZM78.0315 47.948C78.2835 47.5373 78.6101 47.2153 79.0115 46.982C79.4221 46.7487 79.8888 46.632 80.4115 46.632V48.69H79.8935C79.2775 48.69 78.8108 48.8347 78.4935 49.124C78.1855 49.4133 78.0315 49.9173 78.0315 50.636V54.5H76.0715V46.744H78.0315V47.948ZM81.2276 50.594C81.2276 49.81 81.3816 49.1147 81.6896 48.508C82.007 47.9013 82.4363 47.4347 82.9776 47.108C83.519 46.7813 84.121 46.618 84.7836 46.618C85.2876 46.618 85.7683 46.73 86.2256 46.954C86.683 47.1687 87.047 47.458 87.3176 47.822V44.14H89.3056V54.5H87.3176V53.352C87.075 53.7347 86.7343 54.0427 86.2956 54.276C85.857 54.5093 85.3483 54.626 84.7696 54.626C84.1163 54.626 83.519 54.458 82.9776 54.122C82.4363 53.786 82.007 53.3147 81.6896 52.708C81.3816 52.092 81.2276 51.3873 81.2276 50.594ZM87.3316 50.622C87.3316 50.146 87.2383 49.74 87.0516 49.404C86.865 49.0587 86.613 48.7973 86.2956 48.62C85.9783 48.4333 85.6376 48.34 85.2736 48.34C84.9096 48.34 84.5736 48.4287 84.2656 48.606C83.9576 48.7833 83.7056 49.0447 83.5096 49.39C83.323 49.726 83.2296 50.1273 83.2296 50.594C83.2296 51.0607 83.323 51.4713 83.5096 51.826C83.7056 52.1713 83.9576 52.4373 84.2656 52.624C84.583 52.8107 84.919 52.904 85.2736 52.904C85.6376 52.904 85.9783 52.8153 86.2956 52.638C86.613 52.4513 86.865 52.19 87.0516 51.854C87.2383 51.5087 87.3316 51.098 87.3316 50.622ZM98.4299 50.454C98.4299 50.734 98.4112 50.986 98.3739 51.21H92.7039C92.7506 51.77 92.9466 52.2087 93.2919 52.526C93.6372 52.8433 94.0619 53.002 94.5659 53.002C95.2939 53.002 95.8119 52.6893 96.1199 52.064H98.2339C98.0099 52.8107 97.5806 53.4267 96.9459 53.912C96.3112 54.388 95.5319 54.626 94.6079 54.626C93.8612 54.626 93.1892 54.4627 92.5919 54.136C92.0039 53.8 91.5419 53.3287 91.2059 52.722C90.8792 52.1153 90.7159 51.4153 90.7159 50.622C90.7159 49.8193 90.8792 49.1147 91.2059 48.508C91.5326 47.9013 91.9899 47.4347 92.5779 47.108C93.1659 46.7813 93.8426 46.618 94.6079 46.618C95.3452 46.618 96.0032 46.7767 96.5819 47.094C97.1699 47.4113 97.6226 47.864 97.9399 48.452C98.2666 49.0307 98.4299 49.698 98.4299 50.454ZM96.3999 49.894C96.3906 49.39 96.2086 48.9887 95.8539 48.69C95.4992 48.382 95.0652 48.228 94.5519 48.228C94.0666 48.228 93.6559 48.3773 93.3199 48.676C92.9932 48.9653 92.7926 49.3713 92.7179 49.894H96.3999ZM101.821 47.948C102.073 47.5373 102.399 47.2153 102.801 46.982C103.211 46.7487 103.678 46.632 104.201 46.632V48.69H103.683C103.067 48.69 102.6 48.8347 102.283 49.124C101.975 49.4133 101.821 49.9173 101.821 50.636V54.5H99.8605V46.744H101.821V47.948ZM113.155 46.632C114.079 46.632 114.825 46.926 115.395 47.514C115.964 48.0927 116.249 48.9047 116.249 49.95V54.5H114.289V50.216C114.289 49.6 114.135 49.1287 113.827 48.802C113.519 48.466 113.099 48.298 112.567 48.298C112.025 48.298 111.596 48.466 111.279 48.802C110.971 49.1287 110.817 49.6 110.817 50.216V54.5H108.857V46.744H110.817V47.71C111.078 47.374 111.409 47.1127 111.811 46.926C112.221 46.73 112.669 46.632 113.155 46.632ZM121.556 54.626C120.81 54.626 120.138 54.4627 119.54 54.136C118.943 53.8 118.472 53.3287 118.126 52.722C117.79 52.1153 117.622 51.4153 117.622 50.622C117.622 49.8287 117.795 49.1287 118.14 48.522C118.495 47.9153 118.976 47.4487 119.582 47.122C120.189 46.786 120.866 46.618 121.612 46.618C122.359 46.618 123.036 46.786 123.642 47.122C124.249 47.4487 124.725 47.9153 125.07 48.522C125.425 49.1287 125.602 49.8287 125.602 50.622C125.602 51.4153 125.42 52.1153 125.056 52.722C124.702 53.3287 124.216 53.8 123.6 54.136C122.994 54.4627 122.312 54.626 121.556 54.626ZM121.556 52.918C121.911 52.918 122.242 52.834 122.55 52.666C122.868 52.4887 123.12 52.2273 123.306 51.882C123.493 51.5367 123.586 51.1167 123.586 50.622C123.586 49.8847 123.39 49.32 122.998 48.928C122.616 48.5267 122.144 48.326 121.584 48.326C121.024 48.326 120.553 48.5267 120.17 48.928C119.797 49.32 119.61 49.8847 119.61 50.622C119.61 51.3593 119.792 51.9287 120.156 52.33C120.53 52.722 120.996 52.918 121.556 52.918ZM137.792 46.744L135.524 54.5H133.41L131.996 49.082L130.582 54.5H128.454L126.172 46.744H128.16L129.532 52.652L131.016 46.744H133.088L134.544 52.638L135.916 46.744H137.792Z" fill="white"/>
</g>
<defs>
<filter id="filter0_d_205_248" x="0" y="0" width="202" height="108" filterUnits="userSpaceOnUse" color-interpolation-filters="sRGB">
<feFlood flood-opacity="0" result="BackgroundImageFix"/>
<feColorMatrix in="SourceAlpha" type="matrix" values="0 0 0 0 0 0 0 0 0 0 0 0 0 0 0 0 0 0 127 0" result="hardAlpha"/>
<feOffset dy="4"/>
<feGaussianBlur stdDeviation="16"/>
<feComposite in2="hardAlpha" operator="out"/>
<feColorMatrix type="matrix" values="0 0 0 0 0.875 0 0 0 0 0.765771 0 0 0 0 0.484896 0 0 0 0.25 0"/>
<feBlend mode="normal" in2="BackgroundImageFix" result="effect1_dropShadow_205_248"/>
<feBlend mode="normal" in="SourceGraphic" in2="effect1_dropShadow_205_248" result="shape"/>
</filter>
</defs>
</svg>
